<svg width="179" height="58" viewBox="0 0 179 58" fill="none" xmlns="http://www.w3.org/2000/svg">
<path d="M79.7945 29.96H85.8345L94.9545 43H88.1945L79.7945 29.96ZM73.4345 15H79.1545V43H73.4345V15ZM76.9145 19.88V15H82.8345C85.0479 15 86.9279 15.3733 88.4745 16.12C90.0212 16.8667 91.2079 17.9067 92.0345 19.24C92.8612 20.5733 93.2745 22.1333 93.2745 23.92C93.2745 25.68 92.8612 27.24 92.0345 28.6C91.2079 29.9333 90.0212 30.9733 88.4745 31.72C86.9279 32.4667 85.0479 32.84 82.8345 32.84H76.9145V28.28H82.4745C83.4879 28.28 84.3545 28.12 85.0745 27.8C85.8212 27.4533 86.3945 26.9733 86.7945 26.36C87.1945 25.72 87.3945 24.96 87.3945 24.08C87.3945 23.2 87.1945 22.4533 86.7945 21.84C86.3945 21.2 85.8212 20.72 85.0745 20.4C84.3545 20.0533 83.4879 19.88 82.4745 19.88H76.9145ZM100.119 30.68V25.52H120.679V30.68H100.119ZM117.039 15H122.759V43H117.039V15ZM98.2392 15H103.959V43H98.2392V15ZM132.466 43V38.16H146.586V43H132.466ZM132.466 19.84V15H146.586V19.84H132.466ZM132.466 30.52V25.76H145.786V30.52H132.466ZM128.786 15H134.306V43H128.786V15ZM156.104 36.64L156.784 32.12H170.224L170.904 36.64H156.104ZM163.424 24.08L159.224 33.72L159.344 35L155.664 43H149.224L163.424 13.36L177.624 43H171.144L167.544 35.24L167.624 33.8L163.424 24.08Z" fill="black"/>
<mask id="path-2-outside-1_3898_1945" maskUnits="userSpaceOnUse" x="-0.605469" y="2" width="60" height="54" fill="black">
<rect fill="white" x="-0.605469" y="2" width="60" height="54"/>
<path d="M29.6172 48.6611L34.6699 52.8721L33.3545 54L29.5049 48.8125L25.6562 54L24.3408 52.8721L29.3926 48.6611L29.0312 48.1738L29.5049 48.5684L29.9795 48.1738L29.6172 48.6611ZM19.4561 40.6602C25.0193 42.1636 28.0398 46.1723 28.8545 47.9893C28.7513 47.9693 28.6486 47.946 28.5459 47.9229C24.7835 50.7672 18.9624 51.1266 16.9121 50.0654C20.8984 47.4296 25.0206 47.247 27.3965 47.5977C23.3518 46.2244 19.9606 42.6771 19.4561 40.6602ZM39.5596 40.6602C39.0547 42.6787 35.6583 46.2297 31.6094 47.6006C33.9822 47.246 38.116 47.4224 42.1133 50.0654C40.0624 51.1268 34.2389 50.7672 30.4766 47.9209C30.3716 47.9446 30.2667 47.9688 30.1611 47.9893C30.9758 46.1723 33.9963 42.1636 39.5596 40.6602ZM35.9541 46.2139C37.2077 45.5657 41.3378 44.5458 44.5352 46.5439C43.227 47.5459 38.9375 47.7707 35.9541 46.2139ZM13.1719 46.4775C16.5963 44.3374 21.0196 45.4289 22.3623 46.123C19.1671 47.7905 14.5731 47.5506 13.1719 46.4775ZM5.16406 42.2559C6.85203 41.5721 12.7735 40.4426 17.1455 44.2939C15.9937 45.0326 8.32321 45.0389 5.16406 42.2559ZM41.8604 44.2891C46.2323 40.4375 52.1538 41.5662 53.8418 42.25C50.6828 45.033 43.0126 45.0277 41.8604 44.2891ZM12.6787 34.0752C14.3077 34.8896 19.0693 38.5858 19.0693 44.4121C17.7533 44.0357 12.6788 38.285 12.6787 34.0752ZM46.3223 34.0752C46.3222 38.285 41.2477 44.0357 39.9316 44.4121C39.9317 38.5858 44.6933 34.8896 46.3223 34.0752ZM5.16406 35.4893C6.98523 35.471 12.9093 36.5886 15.5674 41.7734C14.2251 42.0391 7.08471 39.2357 5.16406 35.4893ZM53.8418 35.4893C51.9211 39.2357 44.7808 42.0391 43.4385 41.7734C46.0965 36.5886 52.0206 35.471 53.8418 35.4893ZM9.31445 28.252C10.6559 29.8914 11.8656 32.7714 10.293 36.3809C9.57926 35.7922 8.17806 30.86 9.31445 28.252ZM49.877 28.6758C50.9375 31.1097 49.63 35.7129 48.9639 36.2627C47.4962 32.894 48.625 30.2059 49.877 28.6758ZM1.39453 28.5684C4.03338 28.9835 7.59036 30.6761 9.14355 35.3916C7.97767 35.4375 2.70927 33.1354 1.39453 28.5684ZM57.6016 28.5684C56.2868 33.1354 51.0184 35.4375 49.8525 35.3916C51.4057 30.6761 54.9627 28.9835 57.6016 28.5684ZM2.91406 22.0771C5.29782 23.2828 8.16205 25.9865 8.19141 30.9512C7.06754 30.6365 2.76221 26.827 2.91406 22.0771ZM56.0918 22.0771C56.2436 26.827 51.9383 30.6364 50.8145 30.9512C50.8438 25.9865 53.708 23.2828 56.0918 22.0771ZM11.6523 18.2871C12.2263 20.8959 11.9444 24.8251 8.11719 27.9883C7.6498 26.92 7.87658 21.1744 11.6523 18.2871ZM47.3535 18.2871C51.1293 21.1744 51.3561 26.92 50.8887 27.9883C47.0614 24.8251 46.7795 20.8959 47.3535 18.2871ZM3.0791 14.9053C5.18281 16.5516 7.78196 19.426 6.84473 24.3018C5.80415 23.7756 2.00598 19.5355 3.0791 14.9053ZM55.917 14.9053C56.9901 19.5355 53.1919 23.7756 52.1514 24.3018C51.2141 19.426 53.8133 16.5516 55.917 14.9053ZM51.084 12.0605C53.4171 15.0349 52.1095 19.369 51.5371 20.0986C49.7848 17.0209 50.532 13.8816 51.084 12.0605ZM7.93164 12.0186C8.48573 13.8466 9.23578 16.9983 7.47656 20.0879C6.90194 19.3555 5.58954 15.0044 7.93164 12.0186ZM16.9131 11.5273C15.8579 13.6747 13.852 17.2018 9.60059 18.5273C9.70046 17.3657 12.2167 12.2598 16.9131 11.5273ZM42.1123 11.5273C46.8087 12.2598 49.3249 17.3657 49.4248 18.5273C45.1734 17.2018 43.1674 13.6747 42.1123 11.5273ZM11.6338 4.76855C12.8643 6.83267 12.8642 11.5317 10.0449 15.1025C9.37278 14.1497 8.51383 8.35435 11.6338 4.76855ZM47.3672 4.76855C50.4871 8.35435 49.6282 14.1497 48.9561 15.1025C46.1368 11.5317 46.1367 6.83267 47.3672 4.76855ZM18.3066 4C18.4643 6.39783 16.3272 10.5827 12.1924 12.4814C12.0271 11.3269 13.8976 5.77527 18.3066 4ZM40.6943 4C45.1034 5.77527 46.9738 11.3269 46.8086 12.4814C42.6738 10.5827 40.5367 6.39783 40.6943 4Z"/>
</mask>
<path d="M29.6172 48.6611L28.8147 48.0645L28.2502 48.8237L28.977 49.4293L29.6172 48.6611ZM34.6699 52.8721L35.3209 53.6312L36.2189 52.8612L35.3101 52.1039L34.6699 52.8721ZM33.3545 54L32.5515 54.5959L33.1909 55.4576L34.0054 54.7591L33.3545 54ZM29.5049 48.8125L30.3079 48.2166L29.5048 47.1343L28.7018 48.2167L29.5049 48.8125ZM25.6562 54L25.0053 54.7591L25.82 55.4577L26.4594 54.5958L25.6562 54ZM24.3408 52.8721L23.7005 52.1039L22.792 52.8613L23.6899 53.6312L24.3408 52.8721ZM29.3926 48.6611L30.0329 49.4293L30.7585 48.8244L30.1959 48.0655L29.3926 48.6611ZM29.0312 48.1738L29.6713 47.4055L28.228 48.7694L29.0312 48.1738ZM29.5049 48.5684L28.8649 49.3367L29.5042 49.8693L30.1441 49.3374L29.5049 48.5684ZM29.9795 48.1738L30.782 48.7705L29.3402 47.4048L29.9795 48.1738ZM19.4561 40.6602L19.7169 39.6948L18.0726 39.2504L18.4859 40.9028L19.4561 40.6602ZM28.8545 47.9893L28.6645 48.971L30.5547 49.3369L29.767 47.5801L28.8545 47.9893ZM28.5459 47.9229L28.7656 46.9473L28.313 46.8454L27.9428 47.1251L28.5459 47.9229ZM16.9121 50.0654L16.3606 49.2313L14.9398 50.1707L16.4525 50.9535L16.9121 50.0654ZM27.3965 47.5977L27.2505 48.5869L27.718 46.6507L27.3965 47.5977ZM39.5596 40.6602L40.5297 40.9028L40.943 39.2504L39.2987 39.6948L39.5596 40.6602ZM31.6094 47.6006L31.2887 46.6534L31.7572 48.5896L31.6094 47.6006ZM42.1133 50.0654L42.5729 50.9535L44.0856 50.1707L42.6648 49.2313L42.1133 50.0654ZM30.4766 47.9209L31.0799 47.1234L30.7094 46.8431L30.2562 46.9455L30.4766 47.9209ZM30.1611 47.9893L29.2487 47.5801L28.461 49.3369L30.3511 48.971L30.1611 47.9893ZM35.9541 46.2139L35.4948 45.3256L33.7847 46.2097L35.4915 47.1004L35.9541 46.2139ZM44.5352 46.5439L45.1432 47.3378L46.2886 46.4606L45.0651 45.6959L44.5352 46.5439ZM13.1719 46.4775L12.6419 45.6295L11.4183 46.3942L12.5639 47.2715L13.1719 46.4775ZM22.3623 46.123L22.8249 47.0096L24.5317 46.1189L22.8216 45.2347L22.3623 46.123ZM5.16406 42.2559L4.7886 41.329L3.28883 41.9366L4.50304 43.0062L5.16406 42.2559ZM17.1455 44.2939L17.6853 45.1357L18.8014 44.42L17.8065 43.5436L17.1455 44.2939ZM41.8604 44.2891L41.1993 43.5387L40.2043 44.4153L41.3207 45.131L41.8604 44.2891ZM53.8418 42.25L54.5028 43.0004L55.717 41.9307L54.2173 41.3232L53.8418 42.25ZM12.6787 34.0752L13.1259 33.1808L11.6787 32.4572L11.6787 34.0752L12.6787 34.0752ZM19.0693 44.4121L18.7943 45.3736L20.0693 45.7382L20.0693 44.4121L19.0693 44.4121ZM46.3223 34.0752L47.3223 34.0752L47.3223 32.4572L45.8751 33.1808L46.3223 34.0752ZM39.9316 44.4121L38.9316 44.4121L38.9316 45.7382L40.2066 45.3736L39.9316 44.4121ZM5.16406 35.4893L5.15401 34.4893L3.53601 34.5056L4.27419 35.9455L5.16406 35.4893ZM15.5674 41.7734L15.7615 42.7544L17.0621 42.497L16.4573 41.3172L15.5674 41.7734ZM53.8418 35.4893L54.7317 35.9455L55.4699 34.5056L53.8518 34.4893L53.8418 35.4893ZM43.4385 41.7734L42.5486 41.3172L41.9438 42.497L43.2443 42.7544L43.4385 41.7734ZM9.31445 28.252L10.0884 27.6187L9.05166 26.3517L8.3977 27.8525L9.31445 28.252ZM10.293 36.3809L9.65671 37.1523L10.68 37.9962L11.2097 36.7803L10.293 36.3809ZM49.877 28.6758L50.7937 28.2763L50.1398 26.7755L49.103 28.0425L49.877 28.6758ZM48.9639 36.2627L48.0471 36.6621L48.5771 37.8786L49.6004 37.0339L48.9639 36.2627ZM1.39453 28.5684L1.54993 27.5805L-0.000681996 27.3366L0.433558 28.845L1.39453 28.5684ZM9.14355 35.3916L9.18292 36.3908L10.5083 36.3386L10.0934 35.0788L9.14355 35.3916ZM57.6016 28.5684L58.5625 28.845L58.9968 27.3366L57.4462 27.5805L57.6016 28.5684ZM49.8525 35.3916L48.9027 35.0788L48.4878 36.3386L49.8132 36.3908L49.8525 35.3916ZM2.91406 22.0771L3.3654 21.1848L1.96473 20.4764L1.91457 22.0452L2.91406 22.0771ZM8.19141 30.9512L7.92175 31.9141L9.19923 32.2719L9.19139 30.9453L8.19141 30.9512ZM56.0918 22.0771L57.0913 22.0452L57.0411 20.4764L55.6405 21.1848L56.0918 22.0771ZM50.8145 30.9512L49.8145 30.9453L49.8066 32.2719L51.0841 31.9141L50.8145 30.9512ZM11.6523 18.2871L12.629 18.0722L12.2917 16.5393L11.0449 17.4927L11.6523 18.2871ZM8.11719 27.9883L7.20104 28.3891L7.73242 29.6036L8.75425 28.7591L8.11719 27.9883ZM47.3535 18.2871L47.961 17.4927L46.7141 16.5393L46.3769 18.0722L47.3535 18.2871ZM50.8887 27.9883L50.2516 28.7591L51.2734 29.6036L51.8048 28.3891L50.8887 27.9883ZM3.0791 14.9053L3.6954 14.1178L2.45931 13.1504L2.10492 14.6795L3.0791 14.9053ZM6.84473 24.3018L6.39348 25.1942L7.5765 25.7924L7.82675 24.4905L6.84473 24.3018ZM55.917 14.9053L56.8912 14.6795L56.5368 13.1504L55.3007 14.1178L55.917 14.9053ZM52.1514 24.3018L51.1693 24.4905L51.4196 25.7924L52.6026 25.1942L52.1514 24.3018ZM51.084 12.0605L51.8708 11.4434L50.6845 9.93104L50.127 11.7705L51.084 12.0605ZM51.5371 20.0986L50.6681 20.5934L51.4048 21.8873L52.3239 20.7159L51.5371 20.0986ZM7.93164 12.0186L8.88865 11.7285L8.33111 9.88904L7.14482 11.4014L7.93164 12.0186ZM7.47656 20.0879L6.6898 20.7051L7.60884 21.8766L8.34556 20.5827L7.47656 20.0879ZM16.9131 11.5273L17.8106 11.9683L18.6583 10.2431L16.759 10.5393L16.9131 11.5273ZM9.60059 18.5273L8.60426 18.4417L8.47672 19.9252L9.89824 19.482L9.60059 18.5273ZM42.1123 11.5273L42.2664 10.5393L40.3671 10.2431L41.2148 11.9683L42.1123 11.5273ZM49.4248 18.5273L49.1271 19.482L50.5487 19.9252L50.4211 18.4417L49.4248 18.5273ZM11.6338 4.76855L12.4927 4.25649L11.7857 3.0705L10.8794 4.11215L11.6338 4.76855ZM10.0449 15.1025L9.22778 15.679L9.99984 16.7734L10.8298 15.7222L10.0449 15.1025ZM47.3672 4.76855L48.1216 4.11215L47.2153 3.0705L46.5082 4.25649L47.3672 4.76855ZM48.9561 15.1025L48.1712 15.7222L49.0011 16.7734L49.7732 15.679L48.9561 15.1025ZM18.3066 4L19.3045 3.9344L19.2139 2.55668L17.9331 3.07237L18.3066 4ZM12.1924 12.4814L11.2025 12.6231L11.3923 13.9493L12.6097 13.3902L12.1924 12.4814ZM40.6943 4L41.0678 3.07237L39.7871 2.55668L39.6965 3.9344L40.6943 4ZM46.8086 12.4814L46.3913 13.3902L47.6087 13.9493L47.7985 12.6231L46.8086 12.4814ZM29.6172 48.6611L28.977 49.4293L34.0297 53.6403L34.6699 52.8721L35.3101 52.1039L30.2574 47.8929L29.6172 48.6611ZM34.6699 52.8721L34.019 52.1129L32.7036 53.2409L33.3545 54L34.0054 54.7591L35.3209 53.6312L34.6699 52.8721ZM33.3545 54L34.1575 53.4041L30.3079 48.2166L29.5049 48.8125L28.7018 49.4084L32.5515 54.5959L33.3545 54ZM29.5049 48.8125L28.7018 48.2167L24.8531 53.4042L25.6562 54L26.4594 54.5958L30.308 49.4083L29.5049 48.8125ZM25.6562 54L26.3072 53.2409L24.9918 52.1129L24.3408 52.8721L23.6899 53.6312L25.0053 54.7591L25.6562 54ZM24.3408 52.8721L24.9811 53.6402L30.0329 49.4293L29.3926 48.6611L28.7523 47.893L23.7005 52.1039L24.3408 52.8721ZM29.3926 48.6611L30.1959 48.0655L29.8345 47.5782L29.0312 48.1738L28.228 48.7694L28.5893 49.2567L29.3926 48.6611ZM29.0312 48.1738L28.3912 48.9422L28.8649 49.3367L29.5049 48.5684L30.1449 47.8L29.6713 47.4055L29.0312 48.1738ZM29.5049 48.5684L30.1441 49.3374L30.6187 48.9428L29.9795 48.1738L29.3402 47.4048L28.8656 47.7994L29.5049 48.5684ZM29.9795 48.1738L29.177 47.5772L28.8147 48.0645L29.6172 48.6611L30.4197 49.2578L30.782 48.7705L29.9795 48.1738ZM19.4561 40.6602L19.1952 41.6255C24.423 43.0384 27.2293 46.8088 27.942 48.3984L28.8545 47.9893L29.767 47.5801C28.8503 45.5358 25.6156 41.2889 19.7169 39.6948L19.4561 40.6602ZM28.8545 47.9893L29.0445 47.0075C28.9592 46.991 28.8725 46.9713 28.7656 46.9473L28.5459 47.9229L28.3262 48.8984C28.4248 48.9206 28.5434 48.9476 28.6645 48.971L28.8545 47.9893ZM28.5459 47.9229L27.9428 47.1251C26.2319 48.4186 24.0095 49.1729 21.9451 49.4688C20.9186 49.6159 19.9558 49.646 19.1451 49.5815C18.3168 49.5155 17.7175 49.3563 17.3717 49.1773L16.9121 50.0654L16.4525 50.9535C17.1319 51.3051 18.0291 51.4989 18.9864 51.5751C19.9614 51.6528 21.0735 51.6142 22.2289 51.4486C24.5281 51.119 27.0974 50.2715 29.1489 48.7206L28.5459 47.9229ZM16.9121 50.0654L17.4637 50.8996C21.2001 48.429 25.0599 48.2636 27.2505 48.5869L27.3965 47.5977L27.5425 46.6084C24.9813 46.2304 20.5968 46.4303 16.3606 49.2313L16.9121 50.0654ZM27.3965 47.5977L27.718 46.6507C25.8532 46.0176 24.1124 44.8711 22.7778 43.6363C21.4088 42.3696 20.6074 41.142 20.4262 40.4175L19.4561 40.6602L18.4859 40.9028C18.8092 42.1953 19.9557 43.7498 21.4196 45.1043C22.9179 46.4907 24.8951 47.8044 27.075 48.5446L27.3965 47.5977ZM39.5596 40.6602L38.5895 40.4175C38.4081 41.1426 37.6055 42.3714 36.2346 43.639C34.8982 44.8746 33.1553 46.0214 31.2887 46.6534L31.6094 47.6006L31.9301 48.5478C34.1124 47.8089 36.0921 46.4947 37.5924 45.1075C39.0582 43.7522 40.2062 42.1962 40.5297 40.9028L39.5596 40.6602ZM31.6094 47.6006L31.7572 48.5896C33.9442 48.2628 37.815 48.4222 41.5617 50.8996L42.1133 50.0654L42.6648 49.2313C38.4171 46.4226 34.0201 46.2293 31.4616 46.6116L31.6094 47.6006ZM42.1133 50.0654L41.6537 49.1773C41.3078 49.3563 40.7083 49.5156 39.8796 49.5815C39.0686 49.6461 38.1055 49.6159 37.0787 49.4687C35.0136 49.1725 32.7907 48.4176 31.0799 47.1234L30.4766 47.9209L29.8732 48.7184C31.9248 50.2704 34.4948 51.1186 36.7948 51.4484C37.9505 51.6142 39.0629 51.6528 40.0382 51.5752C40.9958 51.499 41.8934 51.3052 42.5729 50.9535L42.1133 50.0654ZM30.4766 47.9209L30.2562 46.9455C30.1438 46.9709 30.0576 46.9907 29.9711 47.0075L30.1611 47.9893L30.3511 48.971C30.4758 48.9469 30.5993 48.9184 30.6969 48.8963L30.4766 47.9209ZM30.1611 47.9893L31.0736 48.3984C31.7864 46.8088 34.5926 43.0384 39.8205 41.6255L39.5596 40.6602L39.2987 39.6948C33.4 41.2889 30.1653 45.5358 29.2487 47.5801L30.1611 47.9893ZM35.9541 46.2139L36.4134 47.1022C36.8943 46.8535 38.0977 46.465 39.5699 46.3851C41.0291 46.3059 42.636 46.5363 44.0052 47.392L44.5352 46.5439L45.0651 45.6959C43.237 44.5534 41.1802 44.2947 39.4616 44.388C37.756 44.4806 36.2675 44.9261 35.4948 45.3256L35.9541 46.2139ZM44.5352 46.5439L43.9271 45.75C43.7687 45.8714 43.4201 46.0327 42.8494 46.1569C42.3003 46.2763 41.6235 46.3446 40.881 46.3385C39.3845 46.3263 37.7323 46.0138 36.4167 45.3273L35.9541 46.2139L35.4915 47.1004C37.1593 47.9708 39.1435 48.3244 40.8646 48.3384C41.7309 48.3455 42.5582 48.267 43.2746 48.1111C43.9693 47.96 44.6475 47.7175 45.1432 47.3378L44.5352 46.5439ZM13.1719 46.4775L13.7018 47.3256C15.1846 46.3989 16.9217 46.1509 18.4937 46.236C20.0787 46.3218 21.3777 46.7397 21.903 47.0113L22.3623 46.123L22.8216 45.2347C22.0042 44.8122 20.4202 44.3373 18.6018 44.2389C16.7704 44.1397 14.5836 44.4161 12.6419 45.6295L13.1719 46.4775ZM22.3623 46.123L21.8997 45.2365C20.4781 45.9783 18.6968 46.3146 17.086 46.328C16.2864 46.3347 15.5562 46.2613 14.9621 46.1322C14.3465 45.9983 13.9615 45.8227 13.7799 45.6836L13.1719 46.4775L12.5639 47.2715C13.0829 47.6689 13.7976 47.9257 14.5372 48.0865C15.2985 48.252 16.1793 48.3356 17.1027 48.3279C18.938 48.3127 21.0512 47.9352 22.8249 47.0096L22.3623 46.123ZM5.16406 42.2559L5.53952 43.1827C6.24369 42.8974 8.00016 42.4665 10.0976 42.5729C12.1775 42.6785 14.5127 43.3073 16.4845 45.0443L17.1455 44.2939L17.8065 43.5436C15.4063 41.4292 12.5948 40.6971 10.199 40.5755C7.82067 40.4548 5.77241 40.9305 4.7886 41.329L5.16406 42.2559ZM17.1455 44.2939L16.6057 43.4522C16.6266 43.4388 16.5354 43.4914 16.2329 43.5521C15.9624 43.6064 15.6022 43.6521 15.1663 43.6806C14.2965 43.7376 13.1874 43.7225 12.0104 43.6008C9.59645 43.3513 7.15867 42.6803 5.82509 41.5055L5.16406 42.2559L4.50304 43.0062C6.3286 44.6144 9.30563 45.3319 11.8047 45.5902C13.0841 45.7225 14.3061 45.7413 15.2971 45.6763C15.7918 45.6439 16.2444 45.5897 16.6262 45.5131C16.976 45.4429 17.3765 45.3338 17.6853 45.1357L17.1455 44.2939ZM41.8604 44.2891L42.5214 45.0394C44.4932 43.3023 46.8285 42.6732 48.9084 42.5675C51.0058 42.4608 52.7622 42.8916 53.4663 43.1768L53.8418 42.25L54.2173 41.3232C53.2334 40.9246 51.1851 40.4491 48.8068 40.5701C46.4109 40.6919 43.5995 41.4242 41.1993 43.5387L41.8604 44.2891ZM53.8418 42.25L53.1808 41.4996C51.8472 42.6745 49.4095 43.3456 46.9956 43.5954C45.8186 43.7172 44.7095 43.7325 43.8396 43.6755C43.4038 43.647 43.0435 43.6014 42.773 43.5472C42.4705 43.4865 42.3792 43.4338 42.4 43.4472L41.8604 44.2891L41.3207 45.131C41.6296 45.3289 42.03 45.438 42.3799 45.5081C42.7617 45.5847 43.2144 45.6389 43.709 45.6713C44.7001 45.7361 45.9221 45.7172 47.2015 45.5848C49.7005 45.3262 52.6774 44.6085 54.5028 43.0004L53.8418 42.25ZM12.6787 34.0752L12.2315 34.9696C12.911 35.3094 14.3954 36.3423 15.702 37.9864C16.9976 39.6166 18.0693 41.7844 18.0693 44.4121L19.0693 44.4121L20.0693 44.4121C20.0693 41.2135 18.7602 38.6201 17.2678 36.742C15.7862 34.8778 14.0754 33.6554 13.1259 33.1808L12.6787 34.0752ZM19.0693 44.4121L19.3443 43.4507C19.368 43.4574 19.2681 43.4237 19.0226 43.2368C18.8031 43.0698 18.5306 42.8296 18.2211 42.5215C17.6033 41.9065 16.8816 41.0644 16.1949 40.1008C14.7866 38.1247 13.6787 35.8523 13.6787 34.0752L12.6787 34.0752L11.6787 34.0752C11.6787 36.5079 13.1082 39.2157 14.5662 41.2615C15.3126 42.3089 16.1063 43.2382 16.8101 43.9389C17.1614 44.2886 17.5013 44.5924 17.8112 44.8282C18.0951 45.0444 18.4416 45.2727 18.7943 45.3736L19.0693 44.4121ZM46.3223 34.0752L45.3223 34.0752C45.3222 35.8522 44.2144 38.1247 42.8061 40.1008C42.1194 41.0644 41.3976 41.9065 40.7799 42.5215C40.4703 42.8296 40.1979 43.0697 39.9784 43.2368C39.7329 43.4237 39.6329 43.4574 39.6566 43.4507L39.9316 44.4121L40.2066 45.3736C40.5593 45.2727 40.9059 45.0443 41.1898 44.8282C41.4997 44.5923 41.8396 44.2886 42.1909 43.9389C42.8947 43.2382 43.6884 42.3089 44.4348 41.2615C45.8928 39.2157 47.3222 36.5079 47.3223 34.0752L46.3223 34.0752ZM39.9316 44.4121L40.9316 44.4121C40.9317 41.7844 42.0034 39.6166 43.299 37.9864C44.6055 36.3423 46.0899 35.3094 46.7695 34.9696L46.3223 34.0752L45.8751 33.1808C44.9256 33.6554 43.2147 34.8778 41.7332 36.742C40.2407 38.6201 38.9317 41.2135 38.9316 44.4121L39.9316 44.4121ZM5.16406 35.4893L5.17411 36.4892C5.93377 36.4816 7.72611 36.7238 9.639 37.591C11.5358 38.4509 13.4787 39.8913 14.6775 42.2296L15.5674 41.7734L16.4573 41.3172C14.998 38.4708 12.6498 36.76 10.4648 35.7694C8.29582 34.7861 6.21552 34.4786 5.15401 34.4893L5.16406 35.4893ZM15.5674 41.7734L15.3732 40.7925C15.3976 40.7876 15.2935 40.8033 14.9898 40.749C14.7182 40.7004 14.3662 40.611 13.9502 40.478C13.1199 40.2125 12.0933 39.7922 11.0425 39.2479C8.88758 38.1317 6.86471 36.6146 6.05394 35.0331L5.16406 35.4893L4.27419 35.9455C5.38407 38.1104 7.8917 39.8682 10.1226 41.0238C11.2648 41.6155 12.3951 42.0805 13.3411 42.3829C13.8133 42.5339 14.2543 42.6492 14.6377 42.7177C14.9889 42.7805 15.4015 42.8257 15.7615 42.7544L15.5674 41.7734ZM53.8418 35.4893L52.9519 35.0331C52.1411 36.6146 50.1183 38.1317 47.9633 39.2479C46.9125 39.7922 45.886 40.2125 45.0556 40.478C44.6396 40.611 44.2876 40.7004 44.0161 40.749C43.7124 40.8033 43.6082 40.7876 43.6326 40.7925L43.4385 41.7734L43.2443 42.7544C43.6043 42.8257 44.0169 42.7805 44.3681 42.7177C44.7515 42.6492 45.1926 42.5339 45.6648 42.3829C46.6108 42.0805 47.741 41.6155 48.8832 41.0238C51.1142 39.8682 53.6218 38.1104 54.7317 35.9455L53.8418 35.4893ZM43.4385 41.7734L44.3284 42.2296C45.5271 39.8913 47.47 38.4509 49.3669 37.591C51.2797 36.7238 53.0721 36.4816 53.8317 36.4892L53.8418 35.4893L53.8518 34.4893C52.7903 34.4786 50.71 34.7861 48.5411 35.7694C46.3561 36.76 44.0079 38.4708 42.5486 41.3172L43.4385 41.7734ZM9.31445 28.252L8.54052 28.8852C9.70542 30.3089 10.7641 32.7958 9.3762 35.9814L10.293 36.3809L11.2097 36.7803C12.967 32.747 11.6064 29.4739 10.0884 27.6187L9.31445 28.252ZM10.293 36.3809L10.9292 35.6094C10.9991 35.667 10.9744 35.6732 10.8823 35.5C10.806 35.3565 10.7151 35.1507 10.6185 34.8861C10.426 34.359 10.2334 33.6611 10.0937 32.8944C9.80453 31.3072 9.78676 29.6714 10.2312 28.6514L9.31445 28.252L8.3977 27.8525C7.70575 29.4405 7.82038 31.5749 8.12612 33.2529C8.28389 34.1189 8.50441 34.9275 8.73985 35.5722C8.85722 35.8936 8.984 36.19 9.11651 36.4391C9.23317 36.6585 9.40839 36.9475 9.65671 37.1523L10.293 36.3809ZM49.877 28.6758L48.9602 29.0752C49.3667 30.0082 49.3534 31.5182 49.0841 32.9966C48.9544 33.7088 48.7756 34.3564 48.5974 34.8446C48.5079 35.0896 48.4243 35.2788 48.3549 35.4092C48.2697 35.5694 48.2516 35.5539 48.3273 35.4915L48.9639 36.2627L49.6004 37.0339C49.8426 36.834 50.0111 36.5545 50.1208 36.3481C50.2463 36.1121 50.3658 35.8324 50.476 35.5305C50.6972 34.9249 50.9039 34.1665 51.0517 33.355C51.3376 31.7858 51.4477 29.7773 50.7937 28.2763L49.877 28.6758ZM48.9639 36.2627L49.8806 35.8633C48.5976 32.9184 49.5755 30.6233 50.6509 29.309L49.877 28.6758L49.103 28.0425C47.6744 29.7884 46.3947 32.8696 48.0471 36.6621L48.9639 36.2627ZM1.39453 28.5684L1.23913 29.5562C3.60257 29.928 6.78519 31.4281 8.19375 35.7044L9.14355 35.3916L10.0934 35.0788C8.39553 29.9242 4.46419 28.039 1.54993 27.5805L1.39453 28.5684ZM9.14355 35.3916L9.10419 34.3924C9.10435 34.3924 9.00613 34.3898 8.78261 34.3314C8.577 34.2777 8.31418 34.1897 8.00816 34.0631C7.39634 33.8099 6.65179 33.4188 5.89888 32.891C4.37978 31.8261 2.92729 30.2779 2.3555 28.2917L1.39453 28.5684L0.433558 28.845C1.17652 31.4258 3.0156 33.3123 4.75085 34.5287C5.62512 35.1416 6.49844 35.6028 7.24344 35.9111C7.61582 36.0652 7.96615 36.1852 8.27695 36.2664C8.56983 36.343 8.89129 36.4023 9.18292 36.3908L9.14355 35.3916ZM57.6016 28.5684L56.6406 28.2917C56.0688 30.2779 54.6163 31.8261 53.0972 32.891C52.3443 33.4188 51.5998 33.8099 50.9879 34.0631C50.6819 34.1897 50.4191 34.2777 50.2135 34.3314C49.99 34.3898 49.8917 34.3924 49.8919 34.3924L49.8525 35.3916L49.8132 36.3908C50.1048 36.4023 50.4263 36.343 50.7192 36.2664C51.03 36.1852 51.3803 36.0652 51.7527 35.9111C52.4977 35.6028 53.371 35.1416 54.2453 34.5287C55.9805 33.3122 57.8196 31.4258 58.5625 28.845L57.6016 28.5684ZM49.8525 35.3916L50.8023 35.7044C52.2109 31.4281 55.3935 29.928 57.757 29.5562L57.6016 28.5684L57.4462 27.5805C54.5319 28.039 50.6006 29.9242 48.9027 35.0788L49.8525 35.3916ZM2.91406 22.0771L2.46273 22.9695C4.59752 24.0492 7.1648 26.4545 7.19142 30.9571L8.19141 30.9512L9.19139 30.9453C9.1593 25.5184 5.99812 22.5164 3.3654 21.1848L2.91406 22.0771ZM8.19141 30.9512L8.46106 29.9882C8.46114 29.9882 8.36842 29.9556 8.17366 29.8313C7.9945 29.717 7.77145 29.5525 7.51915 29.338C7.01476 28.9091 6.42646 28.3081 5.87222 27.5745C4.75395 26.0944 3.84751 24.1749 3.91355 22.1091L2.91406 22.0771L1.91457 22.0452C1.82876 24.7293 2.99907 27.0894 4.27646 28.7801C4.92005 29.632 5.60933 30.3393 6.22352 30.8616C6.53052 31.1226 6.82702 31.3445 7.09783 31.5173C7.35304 31.6802 7.6407 31.8354 7.92175 31.9141L8.19141 30.9512ZM56.0918 22.0771L55.0923 22.1091C55.1584 24.1749 54.2519 26.0944 53.1336 27.5745C52.5794 28.3081 51.9911 28.909 51.4867 29.338C51.2344 29.5525 51.0114 29.717 50.8322 29.8313C50.6374 29.9556 50.5447 29.9882 50.5448 29.9882L50.8145 30.9512L51.0841 31.9141C51.3652 31.8354 51.6528 31.6802 51.908 31.5173C52.1788 31.3445 52.4753 31.1226 52.7823 30.8616C53.3965 30.3393 54.0858 29.632 54.7294 28.7801C56.0068 27.0894 57.1771 24.7293 57.0913 22.0452L56.0918 22.0771ZM50.8145 30.9512L51.8144 30.9571C51.8411 26.4545 54.4083 24.0492 56.5431 22.9695L56.0918 22.0771L55.6405 21.1848C53.0077 22.5164 49.8466 25.5184 49.8145 30.9453L50.8145 30.9512ZM11.6523 18.2871L10.6757 18.502C11.1897 20.8385 10.951 24.3488 7.48013 27.2175L8.11719 27.9883L8.75425 28.7591C12.9378 25.3014 13.2629 20.9534 12.629 18.0722L11.6523 18.2871ZM8.11719 27.9883L9.03333 27.5874C9.03354 27.5879 9.00016 27.4958 8.97319 27.2664C8.94839 27.0554 8.93466 26.7787 8.94121 26.4476C8.95432 25.7857 9.0476 24.9499 9.26518 24.0565C9.7042 22.2538 10.6177 20.3372 12.2598 19.0815L11.6523 18.2871L11.0449 17.4927C8.91127 19.1243 7.82346 21.5241 7.32198 23.5832C7.06932 24.6206 6.95756 25.602 6.9416 26.408C6.93363 26.8109 6.94936 27.1809 6.98687 27.4999C7.02221 27.8005 7.08399 28.1216 7.20104 28.3891L8.11719 27.9883ZM47.3535 18.2871L46.7461 19.0815C48.3882 20.3372 49.3017 22.2538 49.7407 24.0565C49.9583 24.9499 50.0515 25.7857 50.0646 26.4476C50.0712 26.7787 50.0575 27.0554 50.0327 27.2664C50.0057 27.4958 49.9723 27.5879 49.9725 27.5874L50.8887 27.9883L51.8048 28.3891C51.9219 28.1216 51.9836 27.8005 52.019 27.4999C52.0565 27.1809 52.0722 26.8109 52.0643 26.408C52.0483 25.602 51.9365 24.6206 51.6839 23.5832C51.1824 21.5241 50.0946 19.1243 47.961 17.4927L47.3535 18.2871ZM50.8887 27.9883L51.5257 27.2175C48.0548 24.3488 47.8161 20.8385 48.3302 18.502L47.3535 18.2871L46.3769 18.0722C45.743 20.9534 46.068 25.3014 50.2516 28.7591L50.8887 27.9883ZM3.0791 14.9053L2.4628 15.6928C4.43307 17.2347 6.69731 19.7712 5.8627 24.113L6.84473 24.3018L7.82675 24.4905C8.86662 19.0808 5.93256 15.8685 3.6954 14.1178L3.0791 14.9053ZM6.84473 24.3018L7.29598 23.4094C7.29609 23.4094 7.2939 23.4083 7.2893 23.4057C7.28474 23.4031 7.27837 23.3993 7.27015 23.3942C7.25349 23.3837 7.23146 23.369 7.20406 23.3493C7.14876 23.3094 7.07922 23.2544 6.99687 23.1827C6.8319 23.039 6.63193 22.8425 6.41234 22.5966C5.97288 22.1045 5.47818 21.4407 5.04376 20.6575C4.16775 19.0781 3.59236 17.1198 4.05328 15.1311L3.0791 14.9053L2.10492 14.6795C1.49272 17.321 2.27985 19.7978 3.29479 21.6276C3.80584 22.5489 4.38873 23.3332 4.92055 23.9288C5.42488 24.4935 5.95957 24.9747 6.39348 25.1942L6.84473 24.3018ZM55.917 14.9053L54.9428 15.1311C55.4037 17.1198 54.8283 19.0781 53.9523 20.6575C53.5179 21.4407 53.0232 22.1045 52.5838 22.5966C52.3642 22.8425 52.1642 23.039 51.9992 23.1827C51.9169 23.2544 51.8473 23.3094 51.792 23.3493C51.7646 23.369 51.7426 23.3837 51.7259 23.3942C51.7177 23.3993 51.7114 23.4031 51.7068 23.4057C51.7022 23.4083 51.7 23.4094 51.7001 23.4094L52.1514 24.3018L52.6026 25.1942C53.0365 24.9747 53.5712 24.4935 54.0755 23.9288C54.6074 23.3332 55.1903 22.5489 55.7013 21.6276C56.7162 19.7978 57.5034 17.321 56.8912 14.6795L55.917 14.9053ZM52.1514 24.3018L53.1334 24.113C52.2988 19.7712 54.563 17.2347 56.5333 15.6928L55.917 14.9053L55.3007 14.1178C53.0635 15.8685 50.1295 19.0808 51.1693 24.4905L52.1514 24.3018ZM51.084 12.0605L50.2972 12.6777C51.257 13.9013 51.4994 15.4488 51.4025 16.8525C51.3545 17.5469 51.2248 18.1768 51.0781 18.6658C51.0048 18.9101 50.9298 19.1108 50.8633 19.2608C50.791 19.4242 50.7473 19.4852 50.7503 19.4814L51.5371 20.0986L52.3239 20.7159C52.5872 20.3803 52.819 19.8228 52.9937 19.2405C53.1803 18.6187 53.3389 17.8423 53.3977 16.9903C53.5144 15.3008 53.2441 13.1941 51.8708 11.4434L51.084 12.0605ZM51.5371 20.0986L52.4061 19.6038C50.8724 16.9102 51.5014 14.1307 52.041 12.3506L51.084 12.0605L50.127 11.7705C49.5626 13.6324 48.6971 17.1317 50.6681 20.5934L51.5371 20.0986ZM7.93164 12.0186L6.97463 12.3086C7.51631 14.0958 8.14812 16.8875 6.60756 19.5931L7.47656 20.0879L8.34556 20.5827C10.3234 17.1091 9.45515 13.5975 8.88865 11.7285L7.93164 12.0186ZM7.47656 20.0879L8.26333 19.4706C8.26608 19.4741 8.22212 19.4126 8.14944 19.2485C8.08267 19.0977 8.00733 18.896 7.93373 18.6506C7.7864 18.1595 7.6561 17.5269 7.60796 16.8294C7.51065 15.4197 7.75416 13.8651 8.71846 12.6357L7.93164 12.0186L7.14482 11.4014C5.76703 13.1578 5.49568 15.2717 5.6127 16.9671C5.67173 17.8222 5.83088 18.6013 6.01806 19.2253C6.19336 19.8097 6.42591 20.3688 6.6898 20.7051L7.47656 20.0879ZM16.9131 11.5273L16.0156 11.0863C14.9792 13.1955 13.1324 16.3787 9.30293 17.5727L9.60059 18.5273L9.89824 19.482C14.5716 18.0249 16.7367 14.1539 17.8106 11.9683L16.9131 11.5273ZM9.60059 18.5273L10.5969 18.613C10.5969 18.6131 10.5971 18.6107 10.5978 18.6054C10.5985 18.6002 10.5997 18.5929 10.6014 18.5834C10.6048 18.564 10.6102 18.5381 10.6184 18.5053C10.6347 18.4391 10.6598 18.3541 10.6956 18.2509C10.7673 18.0443 10.875 17.7854 11.0212 17.49C11.3137 16.8986 11.745 16.192 12.3095 15.4967C13.4478 14.0947 15.05 12.83 17.0672 12.5154L16.9131 11.5273L16.759 10.5393C14.0798 10.9571 12.0757 12.6116 10.7568 14.2361C10.0927 15.054 9.58264 15.8874 9.22857 16.603C8.8928 17.2817 8.64591 17.9573 8.60426 18.4417L9.60059 18.5273ZM42.1123 11.5273L41.9582 12.5154C43.9754 12.83 45.5776 14.0947 46.7159 15.4967C47.2804 16.192 47.7117 16.8986 48.0042 17.49C48.1504 17.7854 48.2581 18.0443 48.3298 18.2509C48.3656 18.3541 48.3907 18.4391 48.407 18.5053C48.4151 18.5381 48.4206 18.564 48.424 18.5834C48.4257 18.5929 48.4269 18.6002 48.4276 18.6054C48.4283 18.6107 48.4285 18.6131 48.4285 18.613L49.4248 18.5273L50.4211 18.4417C50.3795 17.9573 50.1326 17.2817 49.7968 16.603C49.4427 15.8874 48.9327 15.054 48.2686 14.2361C46.9497 12.6116 44.9456 10.9571 42.2664 10.5393L42.1123 11.5273ZM49.4248 18.5273L49.7225 17.5727C45.893 16.3787 44.0462 13.1955 43.0098 11.0863L42.1123 11.5273L41.2148 11.9683C42.2887 14.1539 44.4537 18.0249 49.1271 19.482L49.4248 18.5273ZM11.6338 4.76855L10.7748 5.28062C11.244 6.06753 11.548 7.52034 11.3636 9.26542C11.1822 10.9817 10.5379 12.8643 9.26006 14.4829L10.0449 15.1025L10.8298 15.7222C12.3712 13.7699 13.1367 11.5176 13.3525 9.47565C13.5653 7.46247 13.2541 5.5337 12.4927 4.25649L11.6338 4.76855ZM10.0449 15.1025L10.8621 14.5261C10.8661 14.5318 10.8162 14.4519 10.7451 14.2286C10.6801 14.0246 10.6135 13.752 10.5564 13.4204C10.4422 12.7577 10.3739 11.9039 10.4163 10.9681C10.5018 9.07838 11.0305 6.9854 12.3882 5.42496L11.6338 4.76855L10.8794 4.11215C9.11714 6.13751 8.5153 8.73512 8.41834 10.8777C8.36945 11.9581 8.44693 12.956 8.58539 13.7599C8.65458 14.1616 8.74092 14.5262 8.83938 14.8354C8.93173 15.1255 9.0557 15.435 9.22778 15.679L10.0449 15.1025ZM47.3672 4.76855L46.6128 5.42496C47.9705 6.9854 48.4992 9.07838 48.5847 10.9681C48.627 11.9039 48.5588 12.7577 48.4446 13.4204C48.3875 13.752 48.3208 14.0246 48.2559 14.2286C48.1848 14.4519 48.1349 14.5318 48.1389 14.5261L48.9561 15.1025L49.7732 15.679C49.9453 15.435 50.0692 15.1255 50.1616 14.8354C50.2601 14.5262 50.3464 14.1616 50.4156 13.7599C50.554 12.956 50.6315 11.9581 50.5826 10.8777C50.4857 8.73512 49.8838 6.13751 48.1216 4.11215L47.3672 4.76855ZM48.9561 15.1025L49.7409 14.4829C48.463 12.8643 47.8188 10.9817 47.6374 9.26542C47.4529 7.52033 47.757 6.06753 48.2261 5.28062L47.3672 4.76855L46.5082 4.25649C45.7468 5.5337 45.4357 7.46247 45.6485 9.47565C45.8643 11.5176 46.6298 13.7699 48.1712 15.7222L48.9561 15.1025ZM18.3066 4L17.3088 4.0656C17.3689 4.97962 16.9791 6.41166 16.0213 7.88202C15.0792 9.32812 13.6493 10.712 11.7751 11.5727L12.1924 12.4814L12.6097 13.3902C14.8703 12.3521 16.5763 10.6942 17.6971 8.9737C18.8021 7.27749 19.402 5.4182 19.3045 3.9344L18.3066 4ZM12.1924 12.4814L13.1823 12.3398C13.1833 12.3466 13.1752 12.2527 13.2134 12.0215C13.2484 11.8102 13.3129 11.5371 13.4129 11.2158C13.6126 10.5736 13.94 9.78222 14.4033 8.96804C15.3388 7.32389 16.7614 5.7002 18.6801 4.92763L18.3066 4L17.9331 3.07237C15.4428 4.07507 13.7257 6.11484 12.665 7.97896C12.1302 8.91892 11.7454 9.84285 11.5031 10.6218C11.382 11.0111 11.2932 11.375 11.2402 11.6952C11.1906 11.9956 11.1602 12.3276 11.2025 12.6231L12.1924 12.4814ZM40.6943 4L40.3208 4.92763C42.2396 5.7002 43.6622 7.32389 44.5977 8.96804C45.0609 9.78222 45.3884 10.5736 45.5881 11.2158C45.688 11.5371 45.7526 11.8102 45.7876 12.0215C45.8258 12.2527 45.8177 12.3466 45.8187 12.3398L46.8086 12.4814L47.7985 12.6231C47.8408 12.3276 47.8104 11.9956 47.7608 11.6952C47.7078 11.375 47.6189 11.0111 47.4979 10.6218C47.2556 9.84285 46.8708 8.91892 46.336 7.97896C45.2753 6.11484 43.5581 4.07507 41.0678 3.07237L40.6943 4ZM46.8086 12.4814L47.2259 11.5727C45.3517 10.712 43.9217 9.32812 42.9797 7.88202C42.0218 6.41166 41.6321 4.97962 41.6922 4.0656L40.6943 4L39.6965 3.9344C39.5989 5.4182 40.1989 7.27749 41.3039 8.9737C42.4247 10.6942 44.1307 12.3521 46.3913 13.3902L46.8086 12.4814Z" fill="black" mask="url(#path-2-outside-1_3898_1945)"/>
<path d="M28.7988 25.9673L33.3857 27.4L33.5488 27.4507L33.6465 27.5904L36.5918 31.7945L36.5967 31.8023L36.6016 31.8091L39.6729 36.5435L39.916 36.9195L39.5703 37.2027L37.2363 39.1148L37.1416 39.1929L37.0225 39.2183L30.1025 40.6705L30.0029 40.691L29.9023 40.6714L21.1045 38.9244L20.8271 38.8697L20.7314 38.6031L19.7803 35.9673L19.71 35.772L19.7988 35.5845L20.5879 33.9127L20.6328 33.817L20.7129 33.7476L24.4902 30.4898L28.2715 26.1177L28.4863 25.8697L28.7988 25.9673ZM21.3232 23.5591L24.4629 28.0416L24.6934 28.3697L24.4229 28.6656L21.2822 32.1041L20.9414 32.4771L20.5723 32.1324L16.9189 28.7232L16.8047 28.6168L16.7715 28.4634L16.0527 25.1431L15.9521 24.6793L16.4092 24.5552L20.7822 23.3638L21.1211 23.2711L21.3232 23.5591ZM39.2324 22.4439L41.9883 23.7437L42.1777 23.8336L42.2471 24.0318L43.0918 26.4683L43.1611 26.6695L43.0645 26.8589L40.4004 32.0953L40.251 32.3892L39.9219 32.3677L38.377 32.2662L38.1436 32.2505L38.0059 32.0611L35.1709 28.1714L34.9619 27.8843L35.1631 27.5923L38.6074 22.6119L38.8486 22.2632L39.2324 22.4439ZM35.2734 15.5269L37.5371 19.398L37.6396 19.5728L37.5908 19.7701L36.5557 23.983L36.5107 24.1656L36.3574 24.273L34.7754 25.3814L34.584 25.5152L34.3584 25.4547L31.8652 24.7818L31.6357 24.7193L31.5391 24.5015L29.9736 20.9849L29.9062 20.8336L29.9434 20.6714L30.959 16.191L31.0342 15.8589L31.3701 15.8072L34.7666 15.2847L35.1025 15.233L35.2734 15.5269ZM23.2148 16.2261L27.4756 16.9146L27.7686 16.9615L27.8672 17.2418L29.0459 20.5894L29.0732 20.6675L29.0742 20.7496L29.1035 23.0113L29.1055 23.1793L29.0049 23.315L27.5488 25.2808L27.3838 25.5045L27.1064 25.482L23.9805 25.2242L23.7021 25.2007L23.5762 24.9527L21.4824 20.8531L21.3906 20.6724L21.4502 20.4781L22.6582 16.5718L22.7861 16.1568L23.2148 16.2261ZM18.6748 19.3902L19.0664 20.7359L19.5918 22.2086L19.6748 22.441L19.541 22.649L19.2959 23.0259L19.2012 23.1724L19.0352 23.2271L17.3477 23.7935L16.9932 23.9117L16.7783 23.606L16.2715 22.8824L16.1152 22.6588L16.2178 22.4058L17.249 19.8853L17.2812 19.8062L17.3379 19.7418L17.8213 19.1978L18.4219 18.5211L18.6748 19.3902ZM40.9482 17.9986L41.6455 18.314L41.7334 18.3531L41.7998 18.4224L42.9795 19.6431L43.1504 19.8199L43.1143 20.063L42.8672 21.7457L42.7725 22.3931L42.1729 22.1314L40.1748 21.2593L39.8271 21.108L39.8799 20.732L40.0303 19.6617L40.0322 19.648L40.3574 17.732L40.9482 17.9986ZM26.1094 10.8453C26.1191 10.8722 26.1269 10.9043 26.1348 10.939L26.5156 12.4224C26.5959 12.7505 26.674 13.0854 26.7334 13.3687C26.7891 13.6343 26.8397 13.9036 26.8438 14.0709L26.8447 14.148L26.8232 14.2232L26.5781 15.0621L26.4775 15.4068L26.1191 15.4214L23.4189 15.5328L22.7148 15.5611L22.9199 14.8873L23.459 13.1187L23.4785 13.0513L23.5166 12.9927H23.5176V12.9918C23.5182 12.9908 23.5193 12.9887 23.5205 12.9869C23.523 12.9831 23.5266 12.9774 23.5312 12.9703C23.5406 12.9558 23.5547 12.9346 23.5723 12.9078C23.6073 12.8543 23.6578 12.7779 23.7197 12.6851C23.8437 12.4994 24.0149 12.2468 24.2012 11.983C24.3867 11.7202 24.5907 11.441 24.7812 11.2027C24.96 10.9791 25.1626 10.7447 25.3408 10.6129L25.8818 10.2134L26.1094 10.8453ZM32.5762 10.3902L34.8232 13.5982L35.0586 13.9341L34.7754 14.23L34.5693 14.4468L34.4795 14.5406L34.3555 14.5787L32.4375 15.1763L32.0107 15.3091L31.8311 14.9L31.3584 13.8248L31.3203 13.7388L31.3164 13.6451L31.2305 11.6793L31.2256 11.5621L31.2734 11.4547L31.71 10.4742L32.0684 9.66656L32.5762 10.3902Z" stroke="black" stroke-linecap="round"/>
</svg>
